<svg width="160" height="115" viewBox="0 0 160 115" fill="none" xmlns="http://www.w3.org/2000/svg">
<path d="M157.818 32.936C156.368 31.839 154.37 31.849 152.94 32.952L110.974 64.98L83.4309 2.75297C82.1229 -0.180027 77.3219 -0.180027 76.0139 2.75297L48.1489 65.707L6.54994 32.988C5.11794 31.859 3.10394 31.828 1.63994 32.914C0.170937 33.998 -0.385063 35.931 0.273937 37.634L29.1749 112.298C29.7789 113.859 31.2789 114.882 32.9479 114.882H126.488C128.171 114.882 129.657 113.864 130.263 112.298L159.161 37.634C159.817 35.941 159.268 34.019 157.818 32.936ZM123.715 106.782H35.7249L13.1569 48.486L47.2419 75.283C48.2249 76.063 49.4989 76.327 50.7249 76.043C51.9409 75.731 52.9449 74.894 53.4539 73.743L79.7239 14.401L105.643 72.958C106.155 74.092 107.14 74.936 108.343 75.241C109.561 75.542 110.822 75.283 111.818 74.54L146.444 48.102L123.715 106.782Z" fill="#FFFF00"/>
</svg>
